<svg width="145.6" height="70" viewBox="0 0 145.6 70" xmlns="http://www.w3.org/2000/svg"><g id="svgGroup" stroke-linecap="round" fill-rule="evenodd" font-size="9pt" stroke="#000" stroke-width="0" fill="#a65def" style="stroke:#000;stroke-width:0;fill:#a65def"><path d="M 145.6 55.1 L 145.6 56.6 L 118.3 56.6 L 118.3 57.1 L 120.3 57.1 L 120.3 58.6 L 134.5 58.6 L 134.5 59.1 L 130.1 59.1 L 130.1 61.1 L 137.1 61.1 L 137.1 62.6 L 138.1 62.6 L 138.1 63.1 L 137.4 63.1 L 137.4 63.6 L 137.1 63.6 L 137.1 65.6 L 137.3 65.6 L 137.3 67.1 L 136.9 67.1 L 136.9 67.6 L 136.4 67.6 A 0.881 0.881 0 0 0 136.328 67.81 Q 136.307 67.908 136.302 68.022 A 1.684 1.684 0 0 0 136.3 68.1 L 137.4 68.1 Q 137.1 69.1 136.3 69.6 L 135.2 69.6 Q 134.79 69.928 134.111 69.987 A 3.593 3.593 0 0 1 133.8 70 L 83.4 70 Q 82.765 70 82.329 69.801 A 1.565 1.565 0 0 1 82 69.6 L 83 69.6 Q 82.1 69.1 81.8 68.1 L 80.7 68.1 A 1.287 1.287 0 0 0 80.696 67.995 Q 80.686 67.872 80.65 67.8 A 0.482 0.482 0 0 1 80.61 67.688 A 0.408 0.408 0 0 1 80.6 67.6 L 81.1 67.6 L 81.1 67.1 L 81.5 67.1 L 81.5 65.6 L 81.3 65.6 L 81.3 63.6 L 81.6 63.6 L 81.6 63.1 L 82.3 63.1 L 82.3 62.6 L 81.3 62.6 L 81.3 61.1 L 74.3 61.1 L 74.3 59.1 L 78.7 59.1 L 78.7 58.6 L 64.5 58.6 L 64.5 57.1 L 62.5 57.1 L 62.5 56.6 L 89.8 56.6 L 89.8 55.1 L 78.7 55.1 L 78.7 53.6 L 89.5 53.6 L 89.5 53.1 L 65.9 53.1 L 65.9 51.6 L 69.3 51.6 L 69.3 51.1 L 82.3 51.1 L 82.3 50.6 L 77.7 50.6 L 77.7 49.1 L 85.5 49.1 L 85.5 47.1 L 77.6 47.1 L 77.6 46.1 L 84.1 46.1 L 84.1 45.6 L 81.1 45.6 L 81.1 44.1 L 84 44.1 L 84 43.1 L 80.3 43.1 L 80.3 42.1 L 89 42.1 L 89 40.6 L 91.5 40.6 L 91.5 39.6 L 77.8 39.6 L 77.8 38.1 L 103.2 38.1 L 103.2 39.6 L 116.9 39.6 L 116.9 40.6 L 114.4 40.6 L 114.4 42.1 L 105.7 42.1 L 105.7 43.1 L 109.4 43.1 L 109.4 44.1 L 106.5 44.1 L 106.5 45.6 L 109.5 45.6 L 109.5 46.1 L 103 46.1 L 103 47.1 L 110.9 47.1 L 110.9 49.1 L 103.1 49.1 L 103.1 49.5 L 130.8 49.5 Q 132.175 49.5 132.971 50.56 A 3.233 3.233 0 0 1 133 50.6 L 137.6 50.6 L 137.9 51.1 L 124.9 51.1 L 125.1 51.6 L 121.6 51.6 A 0.746 0.746 0 0 1 121.653 51.745 Q 121.7 51.925 121.7 52.2 L 121.7 53.1 L 145.3 53.1 L 145.3 53.6 L 134.5 53.6 L 134.5 55.1 L 145.6 55.1 Z M 74.9 64.6 L 76.8 64.6 L 77.5 66.6 L 75.8 66.6 L 76 67.1 Q 76 67.2 76.05 67.35 A 1.304 1.304 0 0 1 76.077 67.439 Q 76.088 67.484 76.094 67.524 A 0.519 0.519 0 0 1 76.1 67.6 L 75.5 67.6 L 75.5 67.8 A 2.528 2.528 0 0 1 75.394 68.554 A 1.912 1.912 0 0 1 74.6 69.6 L 74.7 69.6 Q 74.2 70 73.4 70 L 54.9 70 Q 54.2 70 53.75 69.85 A 7.784 7.784 0 0 0 52.94 69.629 A 8.696 8.696 0 0 0 52.8 69.6 Q 52.124 69.262 51.734 68.817 A 2.344 2.344 0 0 1 51.6 68.65 A 5.994 5.994 0 0 1 51.289 68.178 Q 51.113 67.881 51 67.6 L 51.5 67.6 L 51.5 67.5 L 51.3 67.1 L 51.1 66.6 L 52.8 66.6 L 52.1 64.6 L 50.2 64.6 L 49.9 63.6 L 54 63.6 L 53.3 61.6 L 52.1 61.6 L 51.8 60.9 L 30.3 60.9 L 30.1 61.6 L 28.9 61.6 L 28.2 63.6 L 27.1 63.6 L 26.7 64.6 L 26.1 64.6 L 25.4 66.6 L 25.5 66.6 L 25.3 67.1 L 25.2 67.5 L 25.1 67.6 L 24.6 67.6 A 4.11 4.11 0 0 1 24.355 68.104 Q 24.203 68.371 24 68.65 A 2.617 2.617 0 0 1 23.519 69.148 Q 23.28 69.34 22.976 69.508 A 4.838 4.838 0 0 1 22.8 69.6 L 25.8 69.6 A 16.783 16.783 0 0 0 25.403 69.705 Q 25.166 69.77 24.9 69.85 A 3.279 3.279 0 0 1 24.424 69.953 Q 24.182 69.987 23.905 69.997 A 6.126 6.126 0 0 1 23.7 70 L 5.2 70 A 2.55 2.55 0 0 1 4.75 69.963 Q 4.278 69.878 4 69.6 L 1 69.6 Q 0 68.9 0 67.8 L 0 67.6 L 0.6 67.6 A 1.494 1.494 0 0 1 0.614 67.389 Q 0.638 67.225 0.7 67.1 L 0.8 66.6 L 0.7 66.6 L 1.4 64.6 L 2 64.6 L 2.4 63.6 L 3.5 63.6 L 4.2 61.6 L 5.3 61.6 L 6 59.6 L 2.1 59.6 L 2.5 58.6 L 2.2 58.6 L 2.7 57.1 L 3.7 57.1 L 3.9 56.6 L 1.7 56.6 L 2.4 54.6 L 5.8 54.6 L 6.1 53.6 L 3 53.6 L 3.2 53.1 L 3.7 53.1 L 4.4 51.1 L 4.1 51.1 L 4.6 49.6 L 5 49.6 L 5.7 47.6 L 7 47.6 L 7.5 46.1 L 7.7 45.6 L 12.7 45.6 L 12.9 45.1 L 12.6 45.1 L 13.1 43.6 L 7.5 43.6 L 8.2 41.6 L 10 41.6 L 10.2 41.1 L 9.1 41.1 L 9.3 40.6 L 12.5 40.6 L 13.2 38.6 L 9.3 38.6 L 9.7 37.6 L 11.2 37.6 L 11.9 35.6 L 11 35.6 L 11.5 34.1 L 12.6 34.1 L 13.3 32.1 L 13 32.1 L 13.2 31.6 L 10.9 31.6 L 11.3 30.6 L 13.5 30.6 L 14 29.1 L 13 29.1 L 13.1 28.6 L 14.9 28.6 L 15.6 26.6 L 13.4 26.6 L 13.9 25.1 L 12.8 25.1 L 13.1 24.1 L 6.2 24.1 L 6.5 23.1 L 5.2 23.1 L 5.9 21.1 L 4.6 21.1 L 5.2 19.6 L 9.1 19.6 L 9.8 17.6 L 19.8 17.6 L 20.3 16.1 L 15.5 16.1 L 15.9 15.1 L 19.6 15.1 L 20.3 13.1 L 17 13.1 L 17.5 11.6 L 19.6 11.6 L 20.3 9.6 L 20 9.6 L 20.7 7.6 L 17.9 7.6 L 18 7.1 L 27.6 7.1 L 28.3 5.1 L 28 5.1 L 28.2 4.6 L 24.7 4.6 L 25.1 3.3 L 25.4 2.6 L 26.4 2.6 L 27 1.6 L 26.7 1.6 A 3.427 3.427 0 0 1 27.529 0.789 A 4.462 4.462 0 0 1 28.1 0.45 Q 28.916 0.042 30.06 0.004 A 7.194 7.194 0 0 1 30.3 0 L 52 0 A 6.245 6.245 0 0 1 52.99 0.074 Q 53.666 0.183 54.2 0.45 Q 55.1 0.9 55.6 1.6 L 56 1.6 L 56.6 2.6 L 55.6 2.6 Q 55.738 2.876 55.781 3.104 A 1.064 1.064 0 0 1 55.8 3.3 L 56.3 4.6 L 59.8 4.6 L 59.9 5.1 L 60.2 5.1 L 60.9 7.1 L 51.4 7.1 L 51.6 7.6 L 54.4 7.6 L 55.1 9.6 L 55.4 9.6 L 56.1 11.6 L 54 11.6 L 54.5 13.1 L 57.8 13.1 L 58.5 15.1 L 54.8 15.1 L 55.2 16.1 L 60 16.1 L 60.5 17.6 L 50.5 17.6 L 51.2 19.6 L 47.3 19.6 L 47.8 21.1 L 49 21.1 L 49.7 23.1 L 45.8 23.1 L 46.2 24.1 L 62.1 24.1 L 62.4 25.1 L 61.6 25.1 L 62.1 26.6 L 60.1 26.6 L 60.8 28.6 L 58.4 28.6 L 58.5 29.1 L 62.1 29.1 L 62.6 30.6 L 62.7 30.6 L 63.1 31.6 L 59.8 31.6 L 60 32.1 L 63.2 32.1 L 63.9 34.1 L 65 34.1 L 65.5 35.6 L 65.2 35.6 L 65.9 37.6 L 67.5 37.6 L 67.9 38.6 L 65 38.6 L 65.7 40.6 L 67.7 40.6 L 67.8 41.1 L 67.3 41.1 L 67.5 41.6 L 65.7 41.6 L 66.3 43.6 L 72 43.6 L 72.5 45.1 L 72.8 45.1 L 73 45.6 L 67.9 45.6 L 68.1 46.1 L 68.2 46.1 L 68.7 47.6 L 67.4 47.6 L 68.1 49.6 L 67.6 49.6 L 68.2 51.1 L 68.5 51.1 L 69.2 53.1 L 68.7 53.1 L 68.9 53.6 L 72 53.6 L 72.4 54.6 L 68.9 54.6 L 69.6 56.6 L 71.8 56.6 L 72 57.1 L 71 57.1 L 71.6 58.6 L 71.8 58.6 L 72.2 59.6 L 76.1 59.6 L 76.8 61.6 L 78 61.6 L 78.7 63.6 L 74.6 63.6 L 74.9 64.6 Z M 84.8 2.6 L 79.1 2.6 A 5.439 5.439 0 0 0 79.187 2.317 Q 79.224 2.179 79.249 2.054 A 3.875 3.875 0 0 0 79.25 2.05 A 1.937 1.937 0 0 1 79.327 1.771 A 1.593 1.593 0 0 1 79.4 1.6 L 68.4 1.6 A 8.403 8.403 0 0 1 68.65 1.245 A 7.027 7.027 0 0 1 68.8 1.05 A 5.849 5.849 0 0 1 69.05 0.757 A 4.855 4.855 0 0 1 69.2 0.6 L 80.8 0.6 A 3.097 3.097 0 0 1 81.612 0.155 A 2.611 2.611 0 0 1 82.5 0 L 102.5 0 A 3.246 3.246 0 0 1 103.168 0.065 Q 103.797 0.197 104.2 0.6 L 92.6 0.6 L 93.05 1.05 A 1.523 1.523 0 0 1 93.284 1.347 A 1.291 1.291 0 0 1 93.4 1.6 L 104.3 1.6 Q 104.43 1.991 104.476 2.296 A 2.075 2.075 0 0 1 104.5 2.6 L 110.1 2.6 A 0.3 0.3 0 0 1 110.134 2.602 Q 110.167 2.606 110.184 2.618 A 0.038 0.038 0 0 1 110.2 2.65 L 110.2 2.7 L 110.2 3.6 L 96.7 3.6 L 96.7 5.6 L 102.3 5.6 L 102.3 7.1 L 101.7 7.1 L 101.7 9.1 L 98.1 9.1 L 98.1 11.1 L 106.2 11.1 L 106.2 11.6 L 106.8 11.6 L 106.8 13.6 L 107.2 13.6 L 107.2 15.6 L 106.5 15.6 L 106.5 17.6 L 106 17.6 L 106 20.1 L 107.7 20.1 L 107.7 22.1 L 105.8 22.1 L 105.8 24.1 L 106.2 24.1 L 106.2 24.6 L 113.3 24.6 L 113.3 26.6 L 117 26.6 L 117 27.6 L 101.6 27.6 L 101.6 28.6 L 106.7 28.6 L 106.7 30.6 L 102.5 30.6 L 102.5 32.6 L 106.1 32.6 L 106.1 33.6 L 106.8 33.6 L 106.8 35.1 L 120.2 35.1 L 120.2 36.1 L 129.5 36.1 L 129.5 38.1 L 104.1 38.1 L 104.1 36.1 L 94.8 36.1 L 94.8 35.1 L 81.4 35.1 L 81.4 33.6 L 80.7 33.6 L 80.7 32.6 L 77.1 32.6 L 77.1 30.6 L 81.3 30.6 L 81.3 28.6 L 76.2 28.6 L 76.2 27.6 L 91.6 27.6 L 91.6 26.6 L 87.9 26.6 L 87.9 24.6 L 80.8 24.6 L 80.8 24.1 L 80.4 24.1 L 80.4 22.1 L 82.3 22.1 L 82.3 20.1 L 80.6 20.1 L 80.6 17.6 L 81.1 17.6 L 81.1 15.6 L 81.8 15.6 L 81.8 13.6 L 81.4 13.6 L 81.4 11.6 L 80.8 11.6 L 80.8 11.1 L 72.7 11.1 L 72.7 9.1 L 76.3 9.1 L 76.3 7.1 L 76.9 7.1 L 76.9 5.6 L 71.3 5.6 L 71.3 3.6 L 84.8 3.6 L 84.8 2.6 Z M 35.5 40.6 L 32.3 40.6 L 32.1 41.1 L 33.2 41.1 L 33.1 41.4 L 44.4 41.4 L 44.3 41.1 L 44.8 41.1 L 44.7 40.6 L 42.7 40.6 L 42.1 38.6 L 45 38.6 L 44.7 37.6 L 43 37.6 L 42.4 35.6 L 42.7 35.6 L 42.3 34.1 L 41.2 34.1 L 40.6 32.1 L 37.4 32.1 L 37.2 31.6 L 40.5 31.6 L 40.2 30.6 L 40.1 30.6 L 39.6 29.1 L 36.4 29.1 L 36 30.6 L 33.8 30.6 L 33.5 31.6 L 35.7 31.6 L 35.6 32.1 L 35.9 32.1 L 35.3 34.1 L 34.2 34.1 L 33.7 35.6 L 34.6 35.6 L 34 37.6 L 32.5 37.6 L 32.2 38.6 L 36.1 38.6 L 35.5 40.6 Z M 35.3 24.1 L 35 25.1 L 36.2 25.1 L 35.7 26.6 L 39.8 26.6 L 39.3 25.1 L 40.1 25.1 L 39.8 24.1 L 35.3 24.1 Z M 37.3 28.6 L 38.3 28.6 L 37.8 26.9 L 37.3 28.6 Z" vector-effect="non-scaling-stroke"/></g></svg>