<?xml version="1.0" standalone="no"?>
<!DOCTYPE svg PUBLIC "-//W3C//DTD SVG 20010904//EN"
 "http://www.w3.org/TR/2001/REC-SVG-20010904/DTD/svg10.dtd">
<svg version="1.0" xmlns="http://www.w3.org/2000/svg"
 width="1080.000000pt" height="1080.000000pt" viewBox="0 0 1080.000000 1080.000000"
 preserveAspectRatio="xMidYMid meet">
<metadata>
Created by potrace 1.14, written by Peter Selinger 2001-2017
</metadata>
<g transform="translate(0.000000,1080.000000) scale(0.100000,-0.100000)"
fill="#000000" stroke="none">
<path d="M3360 9395 c0 0 -23 -59 -50 -130 -28 -72 -71 -184 -96 -250 -25 -66
-49 -129 -54 -140 -5 -11 -75 -191 -155 -400 -80 -209 -150 -388 -155 -397 -6
-10 -10 -23 -10 -29 0 -6 -6 -25 -14 -42 -8 -18 -60 -151 -116 -297 -56 -146
-112 -292 -125 -325 -13 -33 -49 -125 -80 -205 -31 -80 -65 -167 -75 -195 -20
-58 -426 -1110 -440 -1140 -5 -11 -84 -216 -175 -455 -92 -239 -172 -448 -179
-465 -7 -16 -30 -75 -51 -130 -20 -55 -64 -167 -96 -250 -68 -176 -138 -357
-238 -620 -40 -104 -77 -199 -82 -210 -5 -11 -52 -132 -105 -270 -52 -137
-106 -277 -119 -310 -12 -33 -49 -127 -80 -210 -32 -82 -63 -163 -70 -180 -7
-16 -38 -97 -70 -180 -68 -178 -139 -362 -150 -390 -4 -11 -16 -40 -25 -65
-41 -110 -113 -298 -125 -325 -7 -16 -38 -97 -69 -180 -32 -82 -62 -158 -67
-167 -5 -10 -9 -20 -9 -23 0 -3 622 -4 1382 -3 l1382 3 49 140 c27 77 50 145
51 150 2 6 6 19 10 30 5 11 10 27 13 35 3 8 30 85 60 170 30 85 76 218 103
295 26 77 74 212 104 300 31 88 77 221 103 295 25 74 49 139 54 144 6 7 3174
13 3469 7 l45 -1 26 -78 c15 -42 40 -113 56 -157 27 -72 188 -515 215 -590 5
-16 14 -39 18 -50 5 -11 14 -36 20 -55 6 -19 28 -80 47 -135 19 -55 66 -189
103 -298 38 -110 70 -201 73 -203 2 -2 643 -3 1424 -2 l1421 3 -45 115 c-25
63 -55 142 -68 175 -12 33 -65 170 -118 305 -52 135 -114 295 -137 355 -23 61
-48 124 -55 140 -7 17 -32 80 -55 140 -23 61 -45 119 -50 130 -5 11 -45 115
-90 230 -45 116 -104 269 -131 340 -28 72 -54 139 -59 150 -15 34 -301 769
-305 785 -3 12 -244 632 -454 1170 -27 69 -60 154 -74 190 -14 36 -104 268
-201 517 -96 248 -196 504 -221 570 -25 65 -50 127 -55 138 -10 24 -174 446
-205 530 -13 33 -60 155 -105 270 -45 116 -92 237 -105 270 -12 33 -109 283
-215 555 -106 272 -201 515 -210 540 -10 25 -43 113 -75 195 -32 83 -62 154
-67 160 -6 7 -697 10 -2028 10 -1111 0 -2020 0 -2020 0z m2033 -1782 c163
-443 374 -1010 386 -1038 5 -11 28 -72 51 -135 23 -63 45 -124 50 -135 5 -11
46 -119 90 -240 45 -121 85 -229 90 -240 5 -11 18 -47 30 -80 11 -33 23 -67
27 -75 3 -8 7 -19 9 -25 1 -5 33 -91 70 -190 36 -99 77 -211 91 -250 13 -38
28 -79 33 -90 11 -22 150 -405 150 -411 0 -2 -507 -4 -1126 -4 -897 0 -1125 3
-1121 13 2 6 39 107 82 222 172 467 356 962 370 995 7 19 66 175 129 345 102
276 359 958 492 1308 27 70 51 127 55 127 3 0 22 -44 42 -97z"/>
</g>
</svg>
